PathFileType	4	(X/Y/Z)	E:\Qualisys_Data\Carbon_Farble_Plate\Data\Amateur_Runner\S2\T2\S2T2V21_c3d.trc
DataRate	CameraRate	NumFrames	NumMarkers	Units	OrigDataRate	OrigDataStartFrame	OrigNumFrames
200.000000	200.000000	4	39	mm	200.000000	156	313
Frame#	Time	LSHO			RSHO			LICST			RICST			LASIS			LHEEL			RASIS			LTROC			RTROC			SACR			LTH1			LSK4			LTH2			LTH3			RHM5			LSK2			LTH4			RTH1			LTOE			RTH2			RTH3			RTH4			LLEP			RLEP			LSK1			LSK3			RSK1			LHM5			RSK2			LFT1			RSK3			RSK4			LLME			RLME			RTOE			RHEEL			RFT1			RFT2			LFT2			
		X1	Y1	Z1	X2	Y2	Z2	X3	Y3	Z3	X4	Y4	Z4	X5	Y5	Z5	X6	Y6	Z6	X7	Y7	Z7	X8	Y8	Z8	X9	Y9	Z9	X10	Y10	Z10	X11	Y11	Z11	X12	Y12	Z12	X13	Y13	Z13	X14	Y14	Z14	X15	Y15	Z15	X16	Y16	Z16	X17	Y17	Z17	X18	Y18	Z18	X19	Y19	Z19	X20	Y20	Z20	X21	Y21	Z21	X22	Y22	Z22	X23	Y23	Z23	X24	Y24	Z24	X25	Y25	Z25	X26	Y26	Z26	X27	Y27	Z27	X28	Y28	Z28	X29	Y29	Z29	X30	Y30	Z30	X31	Y31	Z31	X32	Y32	Z32	X33	Y33	Z33	X34	Y34	Z34	X35	Y35	Z35	X36	Y36	Z36	X37	Y37	Z37	X38	Y38	Z38	X39	Y39	Z39	

157	0.78	52.23705291748047	1511.754028320312	-432.4780578613281	1.776254892349243	1491.194946289062	-142.8799591064453	-15.12627506256104	1038.641723632812	-442.3196716308594	-4.447532176971436	1025.370971679688	-144.6512145996094	33.78813171386719	983.547607421875	-431.9002380371094	-562.7161865234375	545.8156127929688	-299.0394592285156	51.88930130004883	978.98583984375	-176.4534149169922	-116.6150894165039	936.858154296875	-442.7362365722656	-81.10196685791016	918.5801391601562	-133.8985595703125	-103.872802734375	1077.086791992188	-294.7144165039062	-78.43307495117188	686.2642211914062	-458.0458068847656	-413.3522033691406	567.0426635742188	-410.5474243164062	-157.3123321533203	714.00048828125	-454.633544921875	-112.9253234863281	589.79052734375	-446.2229614257812	340.1762390136719	155.5346984863281	-155.6194000244141	-317.6224365234375	582.26220703125	-435.8329162597656	-191.4735565185547	620.503173828125	-432.4046020507812	116.0745468139648	683.704833984375	-121.3347473144531	-651.7702026367188	320.681640625	-363.1941833496094	39.87826538085938	657.5117797851562	-118.8902435302734	145.2361755371094	590.075927734375	-152.0748291015625	67.18827056884766	567.55517578125	-147.8553161621094	-185.7552337646484	561.0426635742188	-441.0651550292969	115.1017990112305	544.0401611328125	-149.2166900634766	-306.8978271484375	503.5528869628906	-438.1924743652344	-404.817626953125	489.8726196289062	-420.9752197265625	182.4602813720703	441.5263977050781	-152.4962005615234	-664.4424438476562	391.9602661132812	-398.7622680664062	106.808219909668	421.3131103515625	-135.4116058349609	-586.5224609375	537.0072021484375	-271.6469116210938	207.0822296142578	342.5933532714844	-161.6091156005859	129.7059173583984	326.2275390625	-146.3701171875	-579.4143676757812	501.2931213378906	-370.718994140625	217.2000122070312	147.7588806152344	-182.7511749267578	394.7785034179688	204.3478851318359	-216.4246368408203	164.1228332519531	104.6759490966797	-237.2126922607422	193.4467010498047	86.31024932861328	-267.3120727539062	179.9241180419922	78.0758056640625	-213.3148193359375	-599.5090942382812	558.8193359375	-319.8115844726562
158	0.785	71.84585571289062	1508.262451171875	-432.5631103515625	22.43160057067871	1486.687744140625	-141.9882049560547	5.363173007965088	1035.416259765625	-442.6254272460938	15.233078956604	1021.878051757812	-145.0097503662109	54.40932083129883	980.2069091796876	-431.8816223144531	-535.668212890625	553.656005859375	-297.8740844726562	71.82183074951172	975.9163208007812	-176.3067474365234	-95.32675933837892	933.0592041015624	-443.8375244140625	-61.57819747924805	915.1710205078124	-134.1814727783203	-84.05152893066406	1073.45263671875	-295.1594848632812	-54.09549713134766	681.9470825195312	-458.8399047851562	-386.5475158691406	568.5546875	-412.0680236816406	-133.6103820800781	708.4298095703125	-455.6646118164062	-87.1673812866211	585.0359497070312	-447.9352722167969	356.0414123535156	150.1285858154297	-157.0319519042969	-289.9190979003906	580.4804077148438	-438.1387634277344	-166.4809265136719	614.4182739257812	-433.5277099609375	134.5408172607422	679.1680908203125	-121.066764831543	-631.7515258789062	332.6131896972656	-364.0552978515625	58.86038589477539	652.28564453125	-117.4327621459961	163.4919128417969	585.890869140625	-153.8690643310547	85.86355590820312	562.8870239257812	-148.5720520019531	-159.8899230957031	555.3441162109375	-442.6115112304688	134.3924255371094	539.8666381835938	-149.9571838378906	-282.22509765625	501.1095581054688	-439.045654296875	-380.4001770019531	491.578125	-420.6007080078125	200.8616180419922	437.0370483398438	-153.5085296630859	-642.061767578125	403.6992797851562	-399.5598754882812	124.9845275878906	417.4284973144531	-136.3236694335938	-560.0595703125	545.1303100585938	-271.1629943847656	224.6911773681641	338.2559814453125	-163.2324676513672	147.5343017578125	321.9754333496094	-147.8685455322266	-553.7042846679688	509.6819152832031	-369.9501342773438	233.180908203125	143.0662078857422	-185.180419921875	411.0004272460938	199.3831787109375	-216.7998199462891	181.3119964599609	100.9715042114258	-241.4532165527344	209.8937377929688	82.71622467041016	-270.7317810058594	195.8472290039062	73.22233581542969	-217.314208984375	-572.0592041015625	567.365966796875	-319.2045288085938
159	0.79	91.89186096191406	1504.429565429688	-432.5444641113281	42.87918853759766	1482.057739257812	-141.1147155761719	25.83297920227051	1031.780517578125	-442.5832214355469	34.78327560424805	1018.292236328125	-144.9210205078125	74.7216567993164	976.9667358398438	-431.8634643554688	-507.5703735351562	560.8247680664062	-297.4770812988281	91.65771484375	972.2932739257812	-176.0317687988281	-74.56417083740234	928.7015380859376	-444.9618225097656	-42.26577377319336	911.4598388671876	-133.8391418457031	-63.90390014648438	1069.724365234375	-295.2704162597656	-29.97707366943359	677.2697143554688	-459.912353515625	-359.0519714355469	569.6798095703125	-413.2070007324219	-109.9592742919922	702.3150634765625	-456.5927734375	-61.90288543701172	579.8125	-449.6955261230469	370.8650207519531	143.3304443359375	-158.0424499511719	-262.2485656738281	578.1400756835938	-439.0340270996094	-141.1664428710938	608.2741088867188	-434.8038940429688	154.0880584716797	675.24853515625	-122.0518798828125	-610.7545776367188	342.8135681152344	-365.7376403808594	78.21549987792969	648.035888671875	-117.8896408081055	183.0955505371094	582.6907958984375	-155.7775421142578	105.4259948730469	558.94775390625	-149.8579864501953	-133.5107879638672	549.1834106445312	-444.7067260742188	153.5306549072266	535.4970703125	-151.5024261474609	-257.1289672851562	498.8633728027344	-439.7484130859375	-355.2387084960938	492.3113403320312	-420.9480895996094	218.8028564453125	431.84619140625	-155.0932769775391	-618.6436157226562	414.9331665039062	-400.5062255859375	142.9647979736328	413.5919799804688	-136.6670074462891	-532.4951171875	552.7755126953125	-270.9032287597656	241.6753540039062	333.0928649902344	-165.0954284667969	164.7062377929688	317.5590209960938	-148.9607238769531	-527.4796752929688	518.1768188476562	-370.164306640625	248.0715179443359	137.4912109375	-187.4423217773438	426.4856262207031	193.0816040039062	-216.8551330566406	196.3639984130859	96.48890686035156	-244.8140869140625	225.0592041015625	78.88426208496094	-274.1444396972656	210.6007537841797	68.2012710571289	-220.3928833007812	-543.3688354492188	576.0306396484375	-319.0101623535156
160	0.795	111.4155197143555	1500.128051757812	-432.2634582519531	63.63551712036133	1477.026123046875	-140.1356048583984	46.09726715087891	1027.880126953125	-442.7994995117188	54.38206100463867	1014.193359375	-144.8192596435547	95.11304473876952	973.17041015625	-431.601318359375	-479.4881286621094	567.5418090820312	-297.1005249023438	110.8932952880859	968.64501953125	-175.7953796386719	-53.43871688842773	924.3164672851562	-446.6527099609375	-22.66284370422363	907.47705078125	-133.8444061279297	-44.02506637573242	1065.371459960938	-295.492431640625	-5.982485294342041	672.314697265625	-460.8801879882812	-331.0207824707031	570.74609375	-414.7515258789062	-85.86699676513672	696.8095703125	-457.2189025878906	-36.33841705322266	574.3989868164062	-451.2557373046875	384.6682434082031	135.5917358398438	-159.0585021972656	-233.9962615966797	575.7655029296875	-441.1211853027344	-115.8680572509766	601.76318359375	-436.0879516601562	173.8184967041016	671.51220703125	-123.3799362182617	-588.7604370117188	352.8390808105469	-366.9967956542969	98.1450424194336	644.8651123046875	-120.6398773193359	202.9369354248047	579.2352905273438	-158.2459411621094	125.4785003662109	556.07275390625	-152.2582855224609	-107.989387512207	543.4067993164062	-446.3803405761719	173.1669464111328	531.9398193359375	-152.2982177734375	-231.7921142578125	496.2030029296875	-441.2219543457031	-330.2503662109375	492.8833312988281	-421.5086669921875	236.4870452880859	426.7279357910156	-156.5613555908203	-594.6700439453125	425.8821716308594	-401.1700439453125	160.6947174072266	408.9197082519531	-138.4810943603516	-504.4132080078125	559.9217529296875	-270.5905456542969	258.339599609375	327.5729064941406	-166.9022216796875	180.7816772460938	312.619873046875	-150.991455078125	-500.760498046875	525.9194946289062	-370.0223999023438	261.919921875	131.8749237060547	-189.7389984130859	440.9758911132812	185.9228057861328	-216.9038391113281	210.0098876953125	92.0964584350586	-247.5913543701172	238.9586181640625	74.66899871826172	-276.9968566894531	223.9114227294922	62.95949554443359	-224.0903015136719	-514.4349975585938	583.5994873046875	-318.5250854492188
